<?xml version="1.0" encoding="UTF-8" standalone="no"?>
<!-- Created with Inkscape (http://www.inkscape.org/) -->

<svg
   width="355"
   height="355"
   viewBox="0 0 93.927087 93.927086"
   version="1.1"
   id="svg1"
   sodipodi:docname="logo.svg"
   inkscape:version="1.4 (86a8ad7, 2024-10-11)"
   inkscape:export-filename="logo-256.png"
   inkscape:export-xdpi="69.228172"
   inkscape:export-ydpi="69.228172"
   xmlns:inkscape="http://www.inkscape.org/namespaces/inkscape"
   xmlns:sodipodi="http://sodipodi.sourceforge.net/DTD/sodipodi-0.dtd"
   xmlns="http://www.w3.org/2000/svg"
   xmlns:svg="http://www.w3.org/2000/svg">
  <sodipodi:namedview
     id="namedview1"
     pagecolor="#ffffff"
     bordercolor="#eeeeee"
     borderopacity="1"
     inkscape:showpageshadow="false"
     inkscape:pageopacity="0"
     inkscape:pagecheckerboard="true"
     inkscape:deskcolor="#000000"
     inkscape:document-units="mm"
     inkscape:zoom="2.0000001"
     inkscape:cx="45.999999"
     inkscape:cy="201.24999"
     inkscape:window-width="2560"
     inkscape:window-height="1369"
     inkscape:window-x="1912"
     inkscape:window-y="-8"
     inkscape:window-maximized="1"
     inkscape:current-layer="layer1" />
  <defs
     id="defs1" />
  <g
     inkscape:label="Calque 1"
     inkscape:groupmode="layer"
     id="layer1"
     transform="translate(1.3337061,-69.705744)">
    <g
       id="g2"
       transform="rotate(21.089592,45.790485,119.17364)">
      <path
         sodipodi:type="spiral"
         style="font-variation-settings:normal;display:none;opacity:1;fill:none;fill-opacity:1;fill-rule:evenodd;stroke:#3b75c2;stroke-width:18.8976;stroke-linecap:round;stroke-linejoin:round;stroke-miterlimit:4;stroke-dasharray:none;stroke-dashoffset:0;stroke-opacity:1;stop-color:#000000;stop-opacity:1"
         id="path2"
         sodipodi:cx="171.77518"
         sodipodi:cy="152.63588"
         sodipodi:expansion="1"
         sodipodi:revolution="2"
         sodipodi:radius="178.01218"
         sodipodi:argument="-11.758162"
         sodipodi:t0="0"
         d="m 171.77518,152.63588 c 9.24826,9.68012 -8.48584,17.24231 -16.08899,15.37123 -20.60408,-5.07051 -23.328,-31.67209 -14.65347,-47.54921 15.51671,-28.40044 54.18437,-30.88682 79.00942,-13.93571 36.43177,24.87645 38.67787,77.00502 13.21795,110.46965 -33.93407,44.60308 -99.9355,46.56834 -141.929858,12.50018 C 38.484618,186.62072 36.819871,106.57358 79.547806,56.101945 131.29706,-5.0259688 225.47875,-6.3802928 284.3981,45.03728 c 69.43442,60.59383 70.47287,168.96187 10.3469,236.31051"
         transform="matrix(0.26458333,0,0,0.26458333,0.13427884,76.021006)"
         inkscape:label="DC-Original" />
      <path
         id="path3"
         style="opacity:1;fill:none;fill-opacity:1;fill-rule:evenodd;stroke:#3b75c2;stroke-width:22.6772;stroke-linecap:round;stroke-linejoin:round;stroke-dasharray:none;stroke-opacity:1;stop-color:#000000;stop-opacity:1"
         inkscape:label="DC"
         transform="matrix(0.26458333,0,0,0.26458333,0.13427846,76.021005)"
         d="m 170.622,152.406 c 1.386,1.45 2.76629,2.47189 3.06529,3.80289 0.382,1.695 0.39671,3.20411 -0.52529,4.61411 -0.825,1.264 -2.132,2.962 -3.61,3.919 -1.327,0.86 -2.075,1.852 -3.645,2.409 -1.58,0.56 -3.558,0.992 -5.111,1.192 -1.813,0.233 -4.36,-0.347 -5.731,-0.684 -3.31,-0.815 -3.537,-1.699 -5.951,-3.491 -2.586,-1.92 -6.458,-3.434 -8.08,-6.158 -1.596,-2.682 -3.085,-8.278 -3.81,-11.422 -0.704,-3.051 -1.529,-4.852 -1.471,-8.048 0.057,-3.183 -0.607,-6.532 0.149,-9.576 0.784,-3.156 3.532,-5.955 5.004,-8.65 2.511,-4.596 6.101,-8.186 9.667,-11.453 3.741,-3.424 7.529,-6.524 12.077,-8.549 4.547,-2.024 9.673,-2.9244 14.666,-3.6119 4.92,-0.6772 8.711,-1.342 13.716,-0.7828 4.96,0.5543 10.845,1.7239 15.55,3.4338 4.714,1.7129 9.195,4.2159 13.316,7.0299 5.911,4.036 11.186,9.192 15.325,14.467 4.31,5.493 7.302,11.009 9.752,17.412 2.458,6.427 4.487,13.602 5.134,20.497 0.64,6.828 0.641,13.98 -0.433,20.83 -1.063,6.783 -3.033,13.363 -5.718,19.745 -2.663,6.329 -6.694,11.681 -10.894,17.2 -5.514,7.248 -11.797,13.545 -18.764,18.57 -7.229,5.213 -14.799,9.679 -23.065,12.561 -8.311,2.898 -17.028,5 -25.842,5.605 -8.748,0.6 -17.591,0.177 -26.298,-1.419 -8.621,-1.58 -17.397,-5.266 -25.457,-8.937 -7.956,-3.625 -15.5246,-8.139 -22.4318,-13.742 -8.5945,-6.973 -16.1881,-14.713 -22.1044,-23.366 -6.1262,-8.958 -12.3557,-19.693 -15.6739,-29.826 -3.3391,-10.197 -3.3803,-19.872 -3.9417,-30.61 -0.5579,-10.674 0.2456,-21.996 2.367,-32.564 2.1007,-10.465 5.7266,-19.8527 10.391,-29.5915 4.5924,-9.5883 10.0067,-19.1169 17.0237,-27.4057 8.4218,-9.948 18.1103,-18.1237 28.4451,-24.9358 10.685,-7.0434 22.247,-12.4436 34.25,-16.2 12.084,-3.7821 24.596,-7.79229 37.262,-8.30998 12.603,-0.51509 25.566,2.7127 37.999,5.36208 12.31,2.6235 24.11,6.381 35.528,12.042 11.222,5.5639 22.094,12.9455 31.76,21.3813 11.305,9.8658 20.547,20.5921 28.257,32.6076 7.964,12.4107 14.058,25.878 18.254,39.751 4.226,13.973 8.663,28.823 9.137,43.42 0.472,14.533 -3.162,28.883 -6.341,43.181 -3.148,14.159 -8.731,27.731 -15.391,40.827 -6.538,12.856 -13.455,27.373 -23.313,38.415"
         sodipodi:nodetypes="cccccccccccccccccccscccccccccccccccccccscccccscsc" />
      <path
         style="display:none;opacity:1;fill:none;fill-rule:evenodd;stroke:#f7a41d;stroke-width:18.8976;stroke-linecap:round;stroke-linejoin:miter;stroke-miterlimit:0;paint-order:normal;stop-color:#000000;stop-opacity:1"
         d="m 171.775,152.636 c 4.50624,5.42712 -1.46005,11.74419 -2.0235,12.21492 -0.60503,0.50546 -13.17277,3.27701 -14.0655,3.15628 -0.80648,-0.10906 -14.40557,-9.78948 -14.86699,-11.0241 -0.41486,-1.11003 -3.9128,-26.43777 -3.18726,-27.66918 0.87956,-1.49283 23.40791,-28.19193 25.11788,-28.79332 2.32348,-0.817161 42.05882,-1.138446 43.956,-0.802857 2.78321,0.492317 42.90338,57.825137 43.1641,58.920117 0.30633,1.28652 -34.1295,75.9293 -35.45138,76.7482 -1.10547,0.68483 -107.90961,11.46986 -110.8079,9.46199 -3.384,-2.34436 -62.951977,-91.10486 -62.462286,-96.46045 C 41.607129,143.36804 103.2086,32.766799 107.85,30.9768 114.98062,28.226809 223.31428,7.1313675 225.23958,8.0688737 227.17864,9.0130801 309.53916,73.068201 312.9053,78.0508 c 3.40433,5.039132 23.96463,123.062 23.53798,126.39171 -0.64598,5.04138 -40.16102,73.25095 -41.69839,76.90579"
         transform="matrix(-0.26458333,0,0,-0.26458333,91.262402,156.97194)"
         id="path2-5"
         sodipodi:nodetypes="cssssssssssssssc"
         inkscape:label="Zig-V1" />
      <path
         style="fill:#f7a41d;fill-opacity:1;stroke:none;stroke-width:0.8;stroke-linecap:butt;stroke-linejoin:round;stroke-dasharray:none;stroke-opacity:1"
         d="M 41.533516,45.692108 44.026446,40.47535 56.601162,43.085255 57.271829,53.61534 44.994826,63.048882 25.918428,54.319913 21.038074,29.793872 24.227981,33.161465 41.767545,16.749706 73.14032,26.361505 81.223879,65.042657 78.440248,61.835558 51.054454,87.146518 2.0579753,77.407935 13.700115,76.022769 -2.532345,51.189501 4.3965835,14.312283 36.108113,-0.93544337 11.157227,19.158591 5.4028737,50.276755 21.683482,74.290249 49.017232,79.793316 73.245213,57.342676 67.692052,32.174551 43.22883,24.278078 28.635916,38.430671 l 2.459552,12.331801 13.330636,6.762593 8.361072,-5.745805 -0.300661,-5.910437 -3.318322,-0.495951 -1.213021,3.788188 z"
         id="path1"
         transform="rotate(-21.089592,235.20198,79.880178)"
         sodipodi:nodetypes="ccccccccccccccccccccccccccccccccc"
         inkscape:label="Zig" />
    </g>
  </g>
</svg>
