<?xml version="1.0" encoding="UTF-8" standalone="no"?>
<!-- Created with Inkscape (http://www.inkscape.org/) -->

<svg
   width="100mm"
   height="100mm"
   viewBox="0 0 100.0145 100.0145"
   version="1.1"
   id="svg1"
   inkscape:version="1.4 (86a8ad7, 2024-10-11)"
   sodipodi:docname="logo-small.svg"
   xmlns:inkscape="http://www.inkscape.org/namespaces/inkscape"
   xmlns:sodipodi="http://sodipodi.sourceforge.net/DTD/sodipodi-0.dtd"
   xmlns="http://www.w3.org/2000/svg"
   xmlns:svg="http://www.w3.org/2000/svg">
  <sodipodi:namedview
     id="namedview1"
     pagecolor="#505050"
     bordercolor="#eeeeee"
     borderopacity="1"
     inkscape:showpageshadow="0"
     inkscape:pageopacity="0"
     inkscape:pagecheckerboard="0"
     inkscape:deskcolor="#d1d1d1"
     inkscape:document-units="mm"
     inkscape:zoom="1.4702524"
     inkscape:cx="0.68015534"
     inkscape:cy="122.76804"
     inkscape:window-width="2560"
     inkscape:window-height="1369"
     inkscape:window-x="1912"
     inkscape:window-y="-8"
     inkscape:window-maximized="1"
     inkscape:current-layer="layer1">
    <inkscape:page
       x="0"
       y="0"
       width="100.0145"
       height="100.0145"
       id="page2"
       margin="0 0 0 2"
       bleed="0" />
  </sodipodi:namedview>
  <defs
     id="defs1" />
  <g
     inkscape:label="Calque 1"
     inkscape:groupmode="layer"
     id="layer1"
     transform="translate(-11.057215,-41.745791)">
    <g
       id="g2"
       style="stroke:#000000;stroke-opacity:1"
       transform="translate(2.1927695,0.25453562)">
      <path
         id="path1"
         style="fill:none;fill-opacity:1;fill-rule:evenodd;stroke:#000000;stroke-width:12;stroke-linecap:round;stroke-linejoin:round;stroke-dasharray:none;stroke-opacity:1;stop-color:#000000"
         inkscape:label="DC"
         d="m 58.804677,91.299981 c 0.20411,0.489902 0.44756,0.873577 0.39465,1.230615 -0.0671,0.454798 -0.20711,0.82874 -0.56895,1.089036 -0.324,0.233489 -0.80831,0.528227 -1.26428,0.623761 -0.40946,0.08596 -0.68856,0.259638 -1.12916,0.247669 -0.44335,-0.01218 -0.97277,-0.09385 -1.37519,-0.19233 -0.46974,-0.115087 -1.04328,-0.500752 -1.34964,-0.714469 -0.73952,-0.516319 -0.7114,-0.756155 -1.13671,-1.428354 -0.45559,-0.720172 -1.2673,-1.462551 -1.40837,-2.289422 -0.13866,-0.814028 0.0265,-2.337223 0.14688,-3.182378 0.11668,-0.820197 0.0845,-1.343338 0.40307,-2.126785 0.31711,-0.780332 0.47203,-1.670286 0.94846,-2.349758 0.494,-0.704454 1.43885,-1.133797 2.05881,-1.658947 1.05743,-0.895516 2.28544,-1.439965 3.47678,-1.906962 1.24949,-0.489093 2.47973,-0.893729 3.79525,-0.960634 1.31517,-0.06675 2.6663,0.19899 3.96433,0.504628 1.27903,0.301231 2.27818,0.498037 3.46048,1.112579 1.17166,0.609049 2.51309,1.458055 3.51178,2.3281 1.00063,0.871641 1.86852,1.916145 2.61793,3.00315 1.07495,1.559085 1.88627,3.334104 2.40582,5.030348 0.54102,1.766339 0.75448,3.412877 0.7497,5.22678 -0.005,1.82059 -0.18731,3.784989 -0.68402,5.548692 -0.49206,1.7465 -1.17272,3.51215 -2.09,5.1009 -0.90818,1.57326 -2.02094,3.01005 -3.29136,4.3299 -1.25994,1.30885 -2.76457,2.24629 -4.32682,3.20886 -2.05123,1.26429 -4.20176,2.22061 -6.40005,2.7978 -2.28086,0.59865 -4.57478,0.98044 -6.88971,0.90493 -2.32757,-0.0758 -4.67958,-0.38683 -6.91301,-1.07661 -2.21667,-0.68473 -4.35939,-1.63104 -6.35686,-2.85398 -1.97777,-1.2108 -3.7933,-2.95624 -5.43351,-4.62981 -1.61891,-1.65232 -3.05755,-3.48722 -4.22925,-5.52797 -1.45778,-2.5396 -2.59547,-5.173254 -3.23217,-7.872602 -0.65948,-2.794624 -1.17529,-6.037755 -1.02972,-8.855107 0.14651,-2.83514 1.05744,-5.227445 1.94116,-7.931689 0.87848,-2.688112 2.15474,-5.406578 3.68455,-7.813441 1.51489,-2.383408 3.30374,-4.355666 5.38237,-6.315727 2.04654,-1.929764 4.29028,-3.766541 6.81163,-5.144676 3.02611,-1.653984 6.19619,-2.74986 9.39599,-3.447587 3.30828,-0.721484 6.67661,-0.953832 9.99731,-0.738404 3.34314,0.216795 6.81366,0.418031 9.98969,1.496091 3.16023,1.072704 6.05299,3.103654 8.86999,4.941358 2.78909,1.819606 5.34432,3.870598 7.62403,6.355122 2.24057,2.441894 4.22169,5.299186 5.80473,8.301903 1.8515,3.511769 3.111803,7.039555 3.871173,10.739741 0.78445,3.821929 1.00668,7.726658 0.72174,11.550841 -0.28706,3.851727 -0.60552,7.940037 -1.878203,11.588597 -1.26709,3.63257 -3.53036,6.82906 -5.67637,10.05603 -2.12511,3.1956 -4.79545,6.01448 -7.68634,8.61331 -2.83793,2.55121 -5.92755,5.47636 -9.41235,7.26368"
         sodipodi:nodetypes="cccccccccccccccccccscccccccccccccccccccscccccscsc" />
      <path
         id="path2"
         style="fill:none;fill-opacity:1;fill-rule:evenodd;stroke:#000000;stroke-width:12;stroke-linecap:round;stroke-linejoin:round;stroke-dasharray:none;stroke-opacity:1;stop-color:#000000"
         inkscape:label="Zig"
         d="m 59.332224,91.66803 c -0.20411,-0.4899 -0.44756,-0.87357 -0.39465,-1.23061 0.0671,-0.4548 0.20711,-0.82874 0.56895,-1.08904 0.324,-0.23349 0.80831,-0.52822 1.26428,-0.62376 0.40946,-0.086 0.68856,-0.25964 1.12916,-0.24767 0.44335,0.0122 0.97277,0.0939 1.37519,0.19233 0.46974,0.11509 1.04328,0.50076 1.34964,0.71447 0.73952,0.51632 0.7114,0.75616 1.13671,1.42836 0.45559,0.72017 1.2673,1.46255 1.40837,2.28942 0.13866,0.81403 -0.0265,2.33722 -0.14688,3.18238 -0.11668,0.82019 -0.0845,1.34333 -0.40307,2.12678 -0.31711,0.78033 -0.47203,1.67029 -0.94846,2.34976 -0.494,0.70444 -1.43885,1.13379 -2.05881,1.65894 -1.05743,0.89551 -2.28544,1.43996 -3.47678,1.90696 -1.24949,0.48909 -2.47973,0.89373 -3.79525,0.96063 -1.31517,0.0668 -2.6663,-0.19899 -3.96433,-0.50463 -1.27903,-0.30123 -2.27818,-0.49803 -3.46048,-1.11257 -1.17166,-0.60905 -2.51309,-1.45806 -3.51178,-2.3281 -1.00063,-0.87164 -1.86852,-1.91614 -2.61793,-3.00314 -1.07495,-1.55909 -1.88627,-3.33411 -2.40582,-5.03035 -0.54102,-1.76634 -0.75448,-3.41288 -0.7497,-5.22678 0.005,-1.82059 0.18731,-3.78499 0.68402,-5.54869 0.49206,-1.7465 1.17272,-3.51215 2.09,-5.1009 0.90818,-1.57326 2.02094,-3.01005 3.29136,-4.3299 1.25994,-1.30885 2.76457,-2.24629 4.32682,-3.20886 2.05123,-1.26429 4.20176,-2.22061 6.40005,-2.7978 2.28086,-0.59865 4.57478,-0.98044 6.88971,-0.90493 2.32757,0.0758 4.67958,0.38683 6.91301,1.07661 2.21667,0.68473 4.35939,1.63104 6.35686,2.85398 1.97777,1.2108 3.7933,2.95624 5.43351,4.62981 1.61891,1.65232 3.05755,3.48722 4.22925,5.52797 1.45778,2.5396 2.59547,5.17325 3.23217,7.8726 0.65948,2.79462 1.17529,6.03775 1.02972,8.8551 -0.14651,2.835141 -1.05744,5.22744 -1.94116,7.93168 -0.87848,2.68812 -2.15474,5.40658 -3.68455,7.81344 -1.51489,2.38341 -3.30374,4.35567 -5.38237,6.31573 -2.04654,1.92977 -4.29028,3.76654 -6.81163,5.14468 -3.02611,1.65398 -6.19619,2.74986 -9.39599,3.44758 -3.30828,0.72149 -6.67661,0.95384 -9.99731,0.73841 -3.34314,-0.2168 -6.81366,-0.41803 -9.98969,-1.49609 -3.16023,-1.07271 -6.05299,-3.10366 -8.86999,-4.94136 -2.78909,-1.81961 -5.34432,-3.8706 -7.62403,-6.35512 -2.24057,-2.4419 -4.22169,-5.29919 -5.80473,-8.30191 -1.8515,-3.51176 -3.1118,-7.03954 -3.87117,-10.73973 -0.78445,-3.82193 -1.00668,-7.72665 -0.72174,-11.55084 0.28706,-3.85172 0.60552,-7.94003 1.8782,-11.58859 1.26709,-3.63257 3.53036,-6.82906 5.67637,-10.05603 2.12511,-3.19561 4.79545,-6.014485 7.68634,-8.613315 2.83793,-2.55121 5.92755,-5.47636 9.41235,-7.26368"
         sodipodi:nodetypes="cccccccccccccccccccscccccccccccccccccccscccccscsc" />
    </g>
    <g
       id="g1"
       transform="translate(2.1927695,0.25453562)">
      <path
         id="path3"
         style="fill:none;fill-opacity:1;fill-rule:evenodd;stroke:#3b75c2;stroke-width:10;stroke-linecap:round;stroke-linejoin:round;stroke-dasharray:none;stroke-opacity:1;stop-color:#000000"
         inkscape:label="DC"
         d="m 58.804677,91.299981 c 0.20411,0.489902 0.44756,0.873577 0.39465,1.230615 -0.0671,0.454798 -0.20711,0.82874 -0.56895,1.089036 -0.324,0.233489 -0.80831,0.528227 -1.26428,0.623761 -0.40946,0.08596 -0.68856,0.259638 -1.12916,0.247669 -0.44335,-0.01218 -0.97277,-0.09385 -1.37519,-0.19233 -0.46974,-0.115087 -1.04328,-0.500752 -1.34964,-0.714469 -0.73952,-0.516319 -0.7114,-0.756155 -1.13671,-1.428354 -0.45559,-0.720172 -1.2673,-1.462551 -1.40837,-2.289422 -0.13866,-0.814028 0.0265,-2.337223 0.14688,-3.182378 0.11668,-0.820197 0.0845,-1.343338 0.40307,-2.126785 0.31711,-0.780332 0.47203,-1.670286 0.94846,-2.349758 0.494,-0.704454 1.43885,-1.133797 2.05881,-1.658947 1.05743,-0.895516 2.28544,-1.439965 3.47678,-1.906962 1.24949,-0.489093 2.47973,-0.893729 3.79525,-0.960634 1.31517,-0.06675 2.6663,0.19899 3.96433,0.504628 1.27903,0.301231 2.27818,0.498037 3.46048,1.112579 1.17166,0.609049 2.51309,1.458055 3.51178,2.3281 1.00063,0.871641 1.86852,1.916145 2.61793,3.00315 1.07495,1.559085 1.88627,3.334104 2.40582,5.030348 0.54102,1.766339 0.75448,3.412877 0.7497,5.22678 -0.005,1.82059 -0.18731,3.784989 -0.68402,5.548692 -0.49206,1.7465 -1.17272,3.51215 -2.09,5.1009 -0.90818,1.57326 -2.02094,3.01005 -3.29136,4.3299 -1.25994,1.30885 -2.76457,2.24629 -4.32682,3.20886 -2.05123,1.26429 -4.20176,2.22061 -6.40005,2.7978 -2.28086,0.59865 -4.57478,0.98044 -6.88971,0.90493 -2.32757,-0.0758 -4.67958,-0.38683 -6.91301,-1.07661 -2.21667,-0.68473 -4.35939,-1.63104 -6.35686,-2.85398 -1.97777,-1.2108 -3.7933,-2.95624 -5.43351,-4.62981 -1.61891,-1.65232 -3.05755,-3.48722 -4.22925,-5.52797 -1.45778,-2.5396 -2.59547,-5.173254 -3.23217,-7.872602 -0.65948,-2.794624 -1.17529,-6.037755 -1.02972,-8.855107 0.14651,-2.83514 1.05744,-5.227445 1.94116,-7.931689 0.87848,-2.688112 2.15474,-5.406578 3.68455,-7.813441 1.51489,-2.383408 3.30374,-4.355666 5.38237,-6.315727 2.04654,-1.929764 4.29028,-3.766541 6.81163,-5.144676 3.02611,-1.653984 6.19619,-2.74986 9.39599,-3.447587 3.30828,-0.721484 6.67661,-0.953832 9.99731,-0.738404 3.34314,0.216795 6.81366,0.418031 9.98969,1.496091 3.16023,1.072704 6.05299,3.103654 8.86999,4.941358 2.78909,1.819606 5.34432,3.870598 7.62403,6.355122 2.24057,2.441894 4.22169,5.299186 5.80473,8.301903 1.8515,3.511769 3.111803,7.039555 3.871173,10.739741 0.78445,3.821929 1.00668,7.726658 0.72174,11.550841 -0.28706,3.851727 -0.60552,7.940037 -1.878203,11.588597 -1.26709,3.63257 -3.53036,6.82906 -5.67637,10.05603 -2.12511,3.1956 -4.79545,6.01448 -7.68634,8.61331 -2.83793,2.55121 -5.92755,5.47636 -9.41235,7.26368"
         sodipodi:nodetypes="cccccccccccccccccccscccccccccccccccccccscccccscsc" />
      <path
         id="path3-5"
         style="fill:none;fill-opacity:1;fill-rule:evenodd;stroke:#f7a41d;stroke-width:10;stroke-linecap:round;stroke-linejoin:round;stroke-dasharray:none;stroke-opacity:1;stop-color:#000000"
         inkscape:label="Zig"
         d="m 59.332224,91.66803 c -0.20411,-0.4899 -0.44756,-0.87357 -0.39465,-1.23061 0.0671,-0.4548 0.20711,-0.82874 0.56895,-1.08904 0.324,-0.23349 0.80831,-0.52822 1.26428,-0.62376 0.40946,-0.086 0.68856,-0.25964 1.12916,-0.24767 0.44335,0.0122 0.97277,0.0939 1.37519,0.19233 0.46974,0.11509 1.04328,0.50076 1.34964,0.71447 0.73952,0.51632 0.7114,0.75616 1.13671,1.42836 0.45559,0.72017 1.2673,1.46255 1.40837,2.28942 0.13866,0.81403 -0.0265,2.33722 -0.14688,3.18238 -0.11668,0.82019 -0.0845,1.34333 -0.40307,2.12678 -0.31711,0.78033 -0.47203,1.67029 -0.94846,2.34976 -0.494,0.70444 -1.43885,1.13379 -2.05881,1.65894 -1.05743,0.89551 -2.28544,1.43996 -3.47678,1.90696 -1.24949,0.48909 -2.47973,0.89373 -3.79525,0.96063 -1.31517,0.0668 -2.6663,-0.19899 -3.96433,-0.50463 -1.27903,-0.30123 -2.27818,-0.49803 -3.46048,-1.11257 -1.17166,-0.60905 -2.51309,-1.45806 -3.51178,-2.3281 -1.00063,-0.87164 -1.86852,-1.91614 -2.61793,-3.00314 -1.07495,-1.55909 -1.88627,-3.33411 -2.40582,-5.03035 -0.54102,-1.76634 -0.75448,-3.41288 -0.7497,-5.22678 0.005,-1.82059 0.18731,-3.78499 0.68402,-5.54869 0.49206,-1.7465 1.17272,-3.51215 2.09,-5.1009 0.90818,-1.57326 2.02094,-3.01005 3.29136,-4.3299 1.25994,-1.30885 2.76457,-2.24629 4.32682,-3.20886 2.05123,-1.26429 4.20176,-2.22061 6.40005,-2.7978 2.28086,-0.59865 4.57478,-0.98044 6.88971,-0.90493 2.32757,0.0758 4.67958,0.38683 6.91301,1.07661 2.21667,0.68473 4.35939,1.63104 6.35686,2.85398 1.97777,1.2108 3.7933,2.95624 5.43351,4.62981 1.61891,1.65232 3.05755,3.48722 4.22925,5.52797 1.45778,2.5396 2.59547,5.17325 3.23217,7.8726 0.65948,2.79462 1.17529,6.03775 1.02972,8.8551 -0.14651,2.835141 -1.05744,5.22744 -1.94116,7.93168 -0.87848,2.68812 -2.15474,5.40658 -3.68455,7.81344 -1.51489,2.38341 -3.30374,4.35567 -5.38237,6.31573 -2.04654,1.92977 -4.29028,3.76654 -6.81163,5.14468 -3.02611,1.65398 -6.19619,2.74986 -9.39599,3.44758 -3.30828,0.72149 -6.67661,0.95384 -9.99731,0.73841 -3.34314,-0.2168 -6.81366,-0.41803 -9.98969,-1.49609 -3.16023,-1.07271 -6.05299,-3.10366 -8.86999,-4.94136 -2.78909,-1.81961 -5.34432,-3.8706 -7.62403,-6.35512 -2.24057,-2.4419 -4.22169,-5.29919 -5.80473,-8.30191 -1.8515,-3.51176 -3.1118,-7.03954 -3.87117,-10.73973 -0.78445,-3.82193 -1.00668,-7.72665 -0.72174,-11.55084 0.28706,-3.85172 0.60552,-7.94003 1.8782,-11.58859 1.26709,-3.63257 3.53036,-6.82906 5.67637,-10.05603 2.12511,-3.19561 4.79545,-6.014485 7.68634,-8.613315 2.83793,-2.55121 5.92755,-5.47636 9.41235,-7.26368"
         sodipodi:nodetypes="cccccccccccccccccccscccccccccccccccccccscccccscsc" />
    </g>
  </g>
</svg>
